<svg xmlns="http://www.w3.org/2000/svg" viewBox="0 0 256 256" fill="currentColor">
  <!-- Organic twig - thicker, slightly wavy -->
  <path d="M0 26 Q64 20 128 26 Q192 32 256 26 L256 46 Q192 52 128 46 Q64 40 0 46 Z" />

  <!-- Gall with exit hole cut out (using fill-rule evenodd) -->
  <path fill-rule="evenodd" d="
    M110 46
    Q100 50 92 60
    C65 80 45 110 40 145
    C35 185 50 218 80 238
    C110 258 150 260 185 245
    C220 230 245 195 248 155
    Q250 148 255 145
    L255 140
    Q250 138 248 130
    C240 95 215 65 175 52
    Q155 46 140 46
    Q130 44 125 40
    Q120 44 110 46
    Z
    M88 144
    a14 14 0 1 0 0 28
    a14 14 0 1 0 0 -28
    Z" />
</svg>
